<svg width="20" height="20" viewBox="0 0 20 20" fill="none" xmlns="http://www.w3.org/2000/svg">
<path d="M16.5312 2.21836C16.2375 1.92461 15.7625 1.92461 15.4719 2.21836L13.9687 3.71836C13.8937 3.79336 13.8344 3.88398 13.7969 3.98398L13.3156 5.26523L10.8937 7.69023C9.48437 6.77148 7.79062 6.74648 6.79999 7.74023C6.45624 8.08398 6.23749 8.50898 6.13124 8.97773C6.01561 9.49648 5.53437 9.93711 5.00312 9.96523C4.20312 10.0059 3.46249 10.2996 2.89999 10.859C1.49999 12.259 1.76249 14.7902 3.48437 16.5121C5.20624 18.234 7.73749 18.4996 9.13749 17.0996C9.69686 16.5402 9.99374 15.7965 10.0312 14.9965C10.0594 14.4652 10.5 13.9871 11.0187 13.8684C11.4875 13.7621 11.9125 13.5402 12.2562 13.1996C13.25 12.2059 13.225 10.5152 12.3062 9.10586L14.7312 6.68086L16.0125 6.19961C16.1125 6.16211 16.2031 6.10273 16.2781 6.02773L17.7781 4.52773C18.0719 4.23398 18.0719 3.75898 17.7781 3.46836L16.5312 2.21836ZM8.49999 9.99961C9.32811 9.99961 9.99999 10.6715 9.99999 11.4996C9.99999 12.3277 9.32811 12.9996 8.49999 12.9996C7.67186 12.9996 6.99999 12.3277 6.99999 11.4996C6.99999 10.6715 7.67186 9.99961 8.49999 9.99961Z" fill="white"/>
</svg>
