<svg width="24" height="24" viewBox="0 0 24 24" fill="none" xmlns="http://www.w3.org/2000/svg">
<path d="M11.8355 2.34977C13.1351 1.35127 14.7439 0.840349 16.3814 0.906016C18.019 0.971684 19.5816 1.60978 20.7971 2.70913C22.0126 3.80849 22.8039 5.29942 23.0331 6.92221C23.2623 8.54499 22.915 10.1968 22.0515 11.5898C21.9966 11.4117 21.9345 11.2359 21.8655 11.0628C21.1695 9.32877 19.5825 7.53077 16.2785 6.91977C13.6645 6.43677 12.6305 5.11277 12.1845 3.99977C11.9753 3.47356 11.8569 2.91562 11.8345 2.34977M10.0845 4.01777L2.31353 11.7898L5.49353 14.9698L1.95853 18.5068C1.71976 18.7374 1.5293 19.0132 1.39828 19.3183C1.26726 19.6233 1.19829 19.9513 1.19541 20.2833C1.19252 20.6152 1.25578 20.9444 1.38148 21.2517C1.50718 21.5589 1.69281 21.838 1.92755 22.0728C2.16228 22.3075 2.44141 22.4931 2.74865 22.6188C3.05589 22.7445 3.38509 22.8078 3.71704 22.8049C4.04898 22.802 4.37703 22.733 4.68204 22.602C4.98705 22.471 5.26292 22.2805 5.49353 22.0418L9.02953 18.5068L12.2125 21.6898L20.3605 13.5418L20.3545 13.3838C20.3256 12.8432 20.2091 12.311 20.0095 11.8078C19.5625 10.6948 18.5295 9.37077 15.9145 8.88777C12.6105 8.27677 11.0235 6.47877 10.3275 4.74477C10.2289 4.4961 10.1479 4.2531 10.0845 4.01777Z" fill="white"/>
</svg>
