<svg width="20" height="20" viewBox="0 0 20 20" fill="none" xmlns="http://www.w3.org/2000/svg">
<path d="M5 1.6C5 1.047 4.552 1 4 1C3.447 1 3 1.047 3 1.6V10H5V1.6ZM3 18.4C3 18.951 3.447 19 4 19C4.553 19 5 18.951 5 18.4V15H3V18.4ZM6.399 11H1.599C1.046 11 1 11.448 1 12V13C1 13.553 1.046 14 1.599 14H6.4C6.95 14 7 13.553 7 13V12C7 11.448 6.95 11 6.399 11ZM18.399 12H13.598C13.046 12 13 12.448 13 13V14C13 14.553 13.046 15 13.599 15H18.4C18.95 15 19 14.553 19 14V13C19 12.448 18.95 12 18.399 12ZM13 7C13 6.448 12.95 6 12.399 6H7.599C7.046 6 7 6.448 7 7V8C7 8.553 7.046 9 7.599 9H12.4C12.95 9 13 8.553 13 8V7ZM11 1.6C11 1.047 10.552 1 10 1C9.447 1 9 1.047 9 1.6V5H11V1.6ZM9 18.4C9 18.951 9.447 19 10 19C10.553 19 11 18.951 11 18.4V10H9V18.4ZM17 1.6C17 1.047 16.552 1 16 1C15.447 1 15 1.047 15 1.6V11H17V1.6ZM15 18.4C15 18.951 15.447 19 16 19C16.553 19 17 18.951 17 18.4V16H15V18.4Z" fill="white"/>
</svg>
