<svg width="16" height="16" viewBox="0 0 16 16" fill="none" xmlns="http://www.w3.org/2000/svg">
<path d="M6.64916 2.49631C6.50734 2.49631 6.43519 2.582 6.40453 2.62413C6.37388 2.66625 6.36266 2.69569 6.35172 2.72434C6.32969 2.78169 6.31666 2.83616 6.30275 2.90225C6.27488 3.03444 6.24931 3.20694 6.2235 3.41606C6.17194 3.83431 6.12138 4.39409 6.07631 4.98581C5.98631 6.16925 5.91894 7.46613 5.91894 7.99919C5.91894 8.48275 5.85269 9.43237 5.764 10.2444C5.75947 10.2861 5.75431 10.3216 5.74963 10.3625C5.74606 10.331 5.74203 10.3042 5.7385 10.2722C5.64981 9.46994 5.58359 8.522 5.58359 7.99919V7.88263L5.58056 7.87969C5.57297 7.30406 5.51025 6.43375 5.42516 5.66437C5.37984 5.25469 5.32912 4.87938 5.27619 4.59688C5.24972 4.45556 5.22375 4.339 5.19203 4.24125C5.17616 4.19238 5.16078 4.14897 5.12984 4.09688C5.11441 4.07088 5.09566 4.0415 5.05672 4.00712C5.01788 3.97275 4.94628 3.92881 4.85328 3.92881C4.75784 3.92881 4.68559 3.97475 4.64703 4.00981C4.60847 4.04481 4.59016 4.07434 4.575 4.1005C4.54469 4.15284 4.52963 4.19666 4.51391 4.24625C4.4825 4.34547 4.45659 4.46438 4.43016 4.60844C4.37734 4.89647 4.32663 5.27866 4.28141 5.69281C4.19084 6.52125 4.12306 7.46613 4.12306 7.99913C4.12306 8.48269 4.05744 9.14006 3.97025 9.66256C3.96472 9.69581 3.95853 9.72262 3.95281 9.75475C3.94875 9.73184 3.94425 9.71344 3.94025 9.68991C3.85325 9.17772 3.78759 8.52194 3.78753 7.99906C3.78753 7.43025 3.71922 6.7575 3.62697 6.21416C3.58081 5.9425 3.52941 5.70509 3.47253 5.52081C3.44409 5.42869 3.41612 5.35091 3.37519 5.27625C3.35475 5.23894 3.33206 5.20156 3.28966 5.15969C3.24716 5.11781 3.17009 5.06087 3.05741 5.06087C2.93991 5.06087 2.86241 5.122 2.82075 5.16494C2.77909 5.20787 2.75722 5.24566 2.73725 5.28369C2.69725 5.35963 2.66956 5.43937 2.64131 5.534C2.58497 5.72325 2.53372 5.96719 2.48769 6.24312C2.39556 6.795 2.32719 7.46616 2.32719 7.99916C2.32719 8.48272 2.26203 8.95344 2.17881 9.28872C2.16966 9.3255 2.15991 9.3535 2.15037 9.38684C2.12256 9.29788 2.09678 9.19919 2.0785 9.081C2.0235 8.72647 2.00863 8.27622 1.99453 7.83153C1.98041 7.38684 1.96803 6.94919 1.9015 6.58544C1.86822 6.40356 1.82344 6.23856 1.73837 6.09075C1.65325 5.94294 1.50275 5.80334 1.30975 5.76969L1.28578 5.76553H1.26141C1.11756 5.76553 1.03266 5.84328 0.980531 5.90159C0.928406 5.95987 0.894594 6.01919 0.86225 6.08553C0.7975 6.21819 0.744125 6.38053 0.696156 6.57397C0.600156 6.96066 0.53125 7.46603 0.53125 7.99903H1.09375C1.09375 7.5155 1.15888 7.04478 1.24213 6.70947C1.25968 6.63894 1.2799 6.56909 1.30275 6.50009C1.32164 6.56131 1.33683 6.62361 1.34822 6.68666C1.40197 6.98031 1.41822 7.40516 1.43228 7.84931C1.44641 8.29347 1.45925 8.75847 1.52259 9.16713C1.58594 9.57578 1.68147 9.95447 1.99547 10.1798L2.06897 10.2326H2.15944C2.30328 10.2326 2.38825 10.1549 2.44038 10.0966C2.4925 10.0383 2.52631 9.97891 2.55866 9.91256C2.62341 9.77991 2.67666 9.61756 2.72466 9.42419C2.82069 9.03747 2.88966 8.53206 2.88966 7.99906C2.88966 7.51547 2.95528 6.85813 3.04241 6.33563C3.04797 6.30238 3.05416 6.27563 3.05991 6.2435C3.06397 6.26638 3.06841 6.28475 3.07241 6.30828C3.15934 6.82047 3.22503 7.47625 3.22503 7.999C3.22509 8.56791 3.29347 9.24066 3.38575 9.784C3.43184 10.0557 3.48319 10.2932 3.54006 10.4774C3.5685 10.5695 3.59653 10.6473 3.63747 10.722C3.65794 10.7593 3.68059 10.7967 3.72309 10.8385C3.7655 10.8804 3.84259 10.9373 3.95528 10.9373C4.07288 10.9373 4.15028 10.8762 4.192 10.8333C4.23366 10.7903 4.25544 10.7526 4.27544 10.7145C4.31537 10.6386 4.34309 10.5588 4.37131 10.4642C4.42772 10.275 4.479 10.031 4.52506 9.75509C4.61713 9.20322 4.6855 8.53206 4.6855 7.99906C4.6855 7.5155 4.75175 6.56587 4.8405 5.75387C4.84503 5.71222 4.85019 5.67669 4.85481 5.63575C4.85844 5.66731 4.86247 5.69419 4.866 5.72613C4.95469 6.52838 5.021 7.47631 5.021 7.99906V8.11562L5.02397 8.11856C5.03156 8.69425 5.09428 9.56456 5.17934 10.334C5.22466 10.7437 5.27541 11.119 5.32834 11.4015C5.35481 11.5427 5.38075 11.6592 5.4125 11.757C5.42837 11.8059 5.44369 11.8493 5.47463 11.9014C5.49013 11.9274 5.50894 11.9568 5.54781 11.9912C5.58672 12.0256 5.65825 12.0694 5.75125 12.0694C5.84669 12.0694 5.91891 12.0235 5.9575 11.9884C5.99606 11.9534 6.01438 11.9239 6.0295 11.8978C6.05981 11.8454 6.07491 11.8016 6.09059 11.752C6.12203 11.6528 6.14794 11.5338 6.17434 11.3898C6.22716 11.1018 6.27791 10.7196 6.32316 10.3054C6.41366 9.477 6.48141 8.53212 6.48141 7.99913C6.48141 7.51553 6.54803 6.20162 6.63728 5.02841C6.64141 4.97403 6.64609 4.92628 6.65034 4.87256C6.65378 4.91678 6.65772 4.95575 6.66113 5.00044C6.75041 6.16413 6.817 7.47628 6.817 7.99903C6.817 8.56794 6.88444 9.86653 6.9745 11.0407C7.0195 11.6278 7.07006 12.1806 7.12169 12.5932C7.14747 12.7994 7.173 12.9694 7.20097 13.0999C7.21494 13.1652 7.22806 13.219 7.25034 13.2761C7.26147 13.3047 7.27291 13.3341 7.304 13.3761C7.33506 13.418 7.40775 13.5018 7.54722 13.5018C7.68903 13.5018 7.76113 13.4161 7.79178 13.374C7.82247 13.3319 7.83366 13.3024 7.84466 13.2738C7.86666 13.2164 7.87975 13.162 7.89372 13.0959C7.92153 12.9637 7.94706 12.7912 7.97284 12.5821C8.02441 12.1638 8.07503 11.6041 8.12003 11.0124C8.21003 9.82894 8.27741 8.53212 8.27741 7.99913C8.27741 7.51553 8.34403 6.20162 8.43328 5.02834C8.43741 4.97412 8.44203 4.92647 8.44628 4.87294C8.44978 4.917 8.45369 4.95588 8.45709 5.00044C8.54631 6.16413 8.61284 7.47637 8.61284 7.99909V8.28034H8.62269C8.63525 8.91978 8.69009 9.99409 8.77034 11.0407C8.81534 11.6278 8.86597 12.1805 8.91753 12.5931C8.94337 12.7993 8.96897 12.9693 8.99691 13.0998C9.01091 13.1651 9.024 13.2189 9.04628 13.2761C9.05744 13.3046 9.06887 13.3341 9.09994 13.3761C9.13103 13.418 9.20378 13.5018 9.34316 13.5018C9.48503 13.5018 9.55716 13.416 9.58784 13.3739C9.61847 13.3318 9.62966 13.3023 9.64066 13.2737C9.66263 13.2164 9.67566 13.1619 9.68959 13.0959C9.71747 12.9637 9.74303 12.7912 9.76881 12.5821C9.82037 12.1638 9.87087 11.6041 9.91591 11.0124C10.0059 9.829 10.0734 8.53206 10.0734 7.99913C10.0734 7.51553 10.1396 6.56587 10.2283 5.75387C10.2329 5.71222 10.238 5.67669 10.2427 5.63575C10.2463 5.66731 10.2503 5.69419 10.2538 5.72613C10.3425 6.52831 10.4088 7.47625 10.4088 7.99906C10.4088 8.56794 10.4767 9.51453 10.5672 10.3339C10.6125 10.7436 10.6632 11.1189 10.7162 11.4014C10.7427 11.5427 10.7687 11.6592 10.8004 11.7569C10.8162 11.8058 10.8315 11.8492 10.8625 11.9013C10.878 11.9273 10.8968 11.9567 10.9357 11.9911C10.9746 12.0254 11.0461 12.0694 11.1391 12.0694C11.2345 12.0694 11.3068 12.0234 11.3453 11.9884C11.3839 11.9534 11.4022 11.9238 11.4174 11.8977C11.4477 11.8453 11.4628 11.8015 11.4785 11.7519C11.5099 11.6527 11.5358 11.5337 11.5622 11.3897C11.615 11.1017 11.6658 10.7195 11.7111 10.3054C11.8016 9.47694 11.8694 8.53206 11.8694 7.99906C11.8694 7.51547 11.935 6.85813 12.0222 6.33563C12.0277 6.3025 12.0339 6.27572 12.0396 6.24369C12.0437 6.2665 12.0481 6.28484 12.0521 6.30825C12.1391 6.82044 12.2048 7.47625 12.2048 7.99906C12.2048 8.56797 12.2732 9.24072 12.3654 9.78406C12.4116 10.0558 12.4629 10.2932 12.5198 10.4775C12.5483 10.5696 12.5763 10.6473 12.6172 10.722C12.6377 10.7593 12.6603 10.7967 12.7028 10.8385C12.7452 10.8804 12.8223 10.9373 12.9351 10.9373C13.0527 10.9373 13.1301 10.8762 13.1718 10.8333C13.2134 10.7903 13.2352 10.7526 13.2552 10.7145C13.2952 10.6386 13.3229 10.5588 13.3512 10.4642C13.4075 10.275 13.4588 10.031 13.5048 9.75509C13.5969 9.20322 13.6653 8.53206 13.6653 7.99906C13.6653 7.5155 13.7304 7.04475 13.8137 6.70944C13.8211 6.6795 13.8291 6.65725 13.8368 6.62956C13.8421 6.64869 13.8477 6.66269 13.8528 6.683C13.9354 7.00675 14.0008 7.47625 14.0008 7.99906C14.0008 8.56794 14.0694 9.07456 14.1661 9.45406C14.2145 9.64375 14.2683 9.80056 14.3348 9.929C14.368 9.99322 14.4031 10.051 14.4569 10.107C14.5107 10.163 14.5969 10.2325 14.731 10.2325C14.8749 10.2325 14.9598 10.1548 15.012 10.0965C15.0641 10.0382 15.0979 9.97888 15.1302 9.91253C15.195 9.77988 15.2483 9.61744 15.2963 9.42409C15.3923 9.03737 15.4613 8.53197 15.4613 7.99897H14.8988C14.8988 8.48253 14.8336 8.95328 14.7503 9.28859C14.7429 9.3185 14.7349 9.34066 14.7272 9.36834C14.7219 9.34928 14.7164 9.33522 14.7113 9.315C14.6287 8.99125 14.5633 8.52188 14.5633 7.99906C14.5633 7.43019 14.4947 6.92344 14.3979 6.544C14.3495 6.35431 14.2957 6.19744 14.2292 6.069C14.196 6.00478 14.1609 5.94703 14.1071 5.89103C14.0534 5.83503 13.9671 5.76547 13.833 5.76547C13.6892 5.76547 13.6042 5.84322 13.5521 5.90153C13.5 5.95987 13.4661 6.01919 13.4338 6.08553C13.369 6.21819 13.3158 6.38053 13.2678 6.57391C13.1718 6.96063 13.1028 7.46609 13.1028 7.99909C13.1028 8.48266 13.0372 9.14003 12.95 9.66253C12.9445 9.69572 12.9383 9.72247 12.9326 9.75453C12.9286 9.73172 12.9241 9.71337 12.9201 9.68994C12.8332 9.17769 12.7674 8.52188 12.7674 7.999C12.7674 7.43016 12.6991 6.75744 12.6067 6.21409C12.5607 5.94241 12.5093 5.70497 12.4524 5.52072C12.4239 5.42859 12.396 5.35081 12.355 5.27616C12.3346 5.23881 12.3119 5.20137 12.2694 5.15959C12.227 5.11772 12.1498 5.06075 12.0372 5.06075C11.9195 5.06075 11.8422 5.12191 11.8004 5.16488C11.7588 5.20778 11.737 5.24556 11.717 5.28353C11.6771 5.35947 11.6494 5.43922 11.6212 5.53384C11.5648 5.72309 11.5135 5.96703 11.4675 6.24297C11.3754 6.79478 11.307 7.46594 11.307 7.99897C11.307 8.48253 11.2408 9.43216 11.1521 10.2442C11.1475 10.2859 11.1424 10.3215 11.1377 10.3625C11.1341 10.3309 11.1301 10.304 11.1265 10.272C11.0378 9.46978 10.9716 8.52181 10.9715 7.99897C10.9715 7.43012 10.9037 6.48353 10.8132 5.66419C10.7679 5.2545 10.7172 4.87919 10.6643 4.59669C10.6378 4.45544 10.6118 4.33888 10.5801 4.24113C10.5642 4.19225 10.5489 4.14887 10.5179 4.09684C10.5025 4.07081 10.4837 4.04137 10.4449 4.007C10.406 3.97262 10.3344 3.92869 10.2414 3.92869C10.1459 3.92869 10.0737 3.97462 10.0351 4.00969C9.99656 4.04469 9.97825 4.07422 9.96313 4.10038C9.93281 4.15272 9.91772 4.19653 9.90203 4.24613C9.87056 4.34534 9.84466 4.46425 9.81828 4.60831C9.76547 4.89634 9.71469 5.27847 9.66944 5.69269C9.57891 6.52103 9.51112 7.46597 9.51112 7.999C9.51112 8.48253 9.44456 9.79638 9.35531 10.9696C9.35119 11.0238 9.34656 11.0714 9.34231 11.125C9.33888 11.081 9.33494 11.0421 9.33153 10.9976C9.24228 9.83394 9.17569 8.52178 9.17569 7.99897V7.71772H9.16588C9.15328 7.07834 9.09847 6.00391 9.01822 4.95734C8.97322 4.37025 8.92259 3.81744 8.87103 3.40484C8.84522 3.19859 8.81963 3.02859 8.79166 2.89806C8.77769 2.83281 8.76463 2.77894 8.74234 2.72181C8.73119 2.69325 8.71969 2.66378 8.68859 2.62181C8.65753 2.57994 8.58484 2.49619 8.44556 2.49609H8.44538C8.30363 2.49609 8.23144 2.58188 8.20081 2.62397C8.17019 2.66609 8.15894 2.69553 8.148 2.72419C8.126 2.78156 8.11291 2.836 8.09894 2.90206C8.07112 3.03425 8.04559 3.20675 8.01981 3.41587C7.96825 3.83412 7.91762 4.39387 7.87262 4.98556C7.78262 6.169 7.71519 7.46594 7.71519 7.999C7.71519 8.48256 7.64862 9.79638 7.55937 10.9696C7.55525 11.0237 7.55056 11.0713 7.54637 11.1247C7.54294 11.0807 7.53903 11.042 7.53562 10.9975C7.44641 9.83388 7.37981 8.52172 7.37981 7.99888C7.37981 7.43006 7.31237 6.13147 7.22231 4.95725C7.17731 4.37016 7.12669 3.81734 7.07506 3.40475C7.04925 3.1985 7.02372 3.0285 6.99578 2.89797C6.98172 2.83275 6.96866 2.77891 6.94634 2.72181C6.93522 2.69325 6.92372 2.66378 6.89266 2.62181C6.86156 2.57988 6.78891 2.49609 6.64947 2.49609L6.64916 2.49631Z" fill="white"/>
</svg>
