<svg width="18" height="18" viewBox="0 0 18 18" fill="none" xmlns="http://www.w3.org/2000/svg">
<g clip-path="url(#clip0_119_17)">
<path fill-rule="evenodd" clip-rule="evenodd" d="M2.1786 12.5428C1.94075 14.4482 2.12718 16.7934 4.58675 17.9042C4.73632 17.9694 4.898 18.0023 5.06118 18.0006H13.2807C13.4498 18.0008 13.6172 17.9676 13.7734 17.9029C13.9296 17.8383 14.0715 17.7435 14.191 17.6239L14.3067 17.5082C15.4317 16.3827 16.0638 14.8567 16.0643 13.2654V4.87607C16.0643 4.37873 15.8668 3.90177 15.5151 3.55009C15.1634 3.19842 14.6864 3.00086 14.1891 3.00086C13.6918 3.00086 13.2148 3.19842 12.8631 3.55009C12.5115 3.90177 12.3139 4.37873 12.3139 4.87607V7.76893C10.0767 6.7635 9.52389 6.66321 7.06432 7.01807V1.87521C7.06432 1.37788 6.86675 0.900908 6.51508 0.549238C6.16341 0.197567 5.68644 0 5.1891 0C4.69177 0 4.2148 0.197567 3.86313 0.549238C3.51146 0.900908 3.31389 1.37788 3.31389 1.87521V9.27321H7.90646C8.41003 9.2724 8.89928 9.44072 9.29575 9.75119C9.69222 10.0617 9.97293 10.4963 10.0929 10.9854C10.2128 11.4744 10.165 11.9896 9.95715 12.4483C9.74929 12.907 9.39342 13.2825 8.9466 13.5148C9.27575 13.9455 9.49946 14.5074 9.52517 15.1901C9.53382 15.2981 9.52053 15.4068 9.48609 15.5095C9.45165 15.6123 9.39677 15.707 9.32477 15.7881C9.25276 15.8691 9.16511 15.9347 9.0671 15.9809C8.96908 16.0272 8.86271 16.0531 8.75441 16.0572C8.6461 16.0613 8.53809 16.0434 8.43687 16.0047C8.33565 15.9659 8.24331 15.9071 8.16542 15.8317C8.08752 15.7564 8.02568 15.666 7.98361 15.5661C7.94154 15.4662 7.9201 15.3589 7.9206 15.2505C7.90132 14.7684 7.70075 14.4739 7.48346 14.2991C7.23275 14.0985 6.98846 14.0741 6.92418 14.0844C6.71922 14.1189 6.50888 14.0726 6.3373 13.9553C6.16572 13.838 6.04626 13.6588 6.004 13.4553C5.96173 13.2518 5.99996 13.0399 6.11064 12.864C6.22133 12.6881 6.39586 12.5619 6.5976 12.5119L8.06332 12.1416C8.21374 12.1026 8.34482 12.0101 8.43211 11.8816C8.5194 11.753 8.55695 11.597 8.53775 11.4428C8.51855 11.2886 8.44392 11.1466 8.32776 11.0434C8.21161 10.9401 8.06187 10.8826 7.90646 10.8816H3.28175C2.98384 11.0566 2.72968 11.2971 2.53854 11.585C2.34741 11.8728 2.22432 12.2003 2.1786 12.5428Z" fill="white"/>
</g>
<defs>
<clipPath id="clip0_119_17">
<rect width="18" height="18" fill="white"/>
</clipPath>
</defs>
</svg>
