<svg width="24" height="24" viewBox="0 0 24 24" fill="none" xmlns="http://www.w3.org/2000/svg">
<path d="M5.189 5.5H9V7.5H5V9.5H9V11.5H5V13C5 13.168 5.00667 13.3347 5.02 13.5H9V15.5H5.544C6.02279 16.5446 6.79148 17.4297 7.75868 18.0502C8.72588 18.6706 9.8509 19.0003 11 19V20H6V22H18V20H13V19C14.1491 19.0003 15.2741 18.6706 16.2413 18.0502C17.2085 17.4297 17.9772 16.5446 18.456 15.5H15V13.5H18.98C18.9933 13.3347 19 13.168 19 13V11.5H15V9.5H19V7.5H15V5.5H18.811C18.4784 4.21181 17.7271 3.07071 16.6752 2.25612C15.6233 1.44153 14.3304 0.999662 13 1H11C9.66956 0.999662 8.37675 1.44153 7.32484 2.25612C6.27294 3.07071 5.52161 4.21181 5.189 5.5Z" fill="white"/>
</svg>
