<svg width="24" height="24" viewBox="0 0 24 24" fill="none" xmlns="http://www.w3.org/2000/svg">
<path d="M18.9992 15.9995L19.8692 4.2645C19.9164 3.71538 19.746 3.16969 19.3948 2.74494C19.0436 2.3202 18.5396 2.05039 17.9914 1.99361C17.4432 1.93684 16.8946 2.09764 16.4638 2.4414C16.033 2.78516 15.7545 3.28436 15.6882 3.8315L14.9992 8.9995M7.99917 10.9995L7.28617 6.7205C7.19701 6.19613 6.90849 5.72658 6.48099 5.41011C6.05349 5.09365 5.52015 4.9548 4.9926 5.02263C4.46505 5.09046 3.98419 5.35972 3.65066 5.77404C3.31712 6.18836 3.15677 6.71563 3.20317 7.2455L3.99917 15.9995M11.9992 12.9995V11.4995C11.9992 10.9691 11.7885 10.4604 11.4134 10.0853C11.0383 9.71021 10.5296 9.4995 9.99917 9.4995C9.46874 9.4995 8.96003 9.71021 8.58496 10.0853C8.20988 10.4604 7.99917 10.9691 7.99917 11.4995V14.9995" stroke="white" stroke-width="2" stroke-linecap="round" stroke-linejoin="round"/>
<path d="M16 13V11C16 10.4696 15.7893 9.96086 15.4142 9.58579C15.0391 9.21071 14.5304 9 14 9C13.4696 9 12.9609 9.21071 12.5858 9.58579C12.2107 9.96086 12 10.4696 12 11V13" stroke="white" stroke-width="2" stroke-linecap="round" stroke-linejoin="round"/>
<path d="M19 16C18.464 20 15.642 22 11.5 22C7.358 22 4 20 4 16" stroke="white" stroke-width="2"/>
<path d="M13.692 17H11C10.4696 17 9.96086 16.7893 9.58579 16.4142C9.21071 16.0391 9 15.5304 9 15C9 14.4696 9.21071 13.9609 9.58579 13.5858C9.96086 13.2107 10.4696 13 11 13H15C17.21 13 19.5 15 18.5 18" stroke="white" stroke-width="2" stroke-linecap="round" stroke-linejoin="round"/>
</svg>
