<svg width="277" height="277" viewBox="0 0 277 277" fill="none" xmlns="http://www.w3.org/2000/svg">
<path d="M138.429 276.848C214.878 276.848 276.855 214.872 276.855 138.423C276.855 61.9699 214.878 -0.000854492 138.429 -0.000854492C61.9711 -0.000854492 0.000335693 61.9699 0.000335693 138.423C0.000335693 214.867 61.9711 276.841 138.43 276.841L138.429 276.848ZM74.9471 77.199C75.5378 76.231 76.3136 75.3891 77.2301 74.7213C78.1467 74.0536 79.1858 73.5731 80.2883 73.3075C81.3907 73.0419 82.5346 72.9963 83.6547 73.1734C84.7747 73.3504 85.8489 73.7466 86.8156 74.3393C119.317 94.1917 160.232 98.6879 208.417 87.6789C210.648 87.1716 212.989 87.5708 214.926 88.789C216.863 90.0071 218.237 91.9444 218.746 94.1752C219 95.2798 219.033 96.4235 218.844 97.5409C218.655 98.6583 218.247 99.7274 217.644 100.687C217.042 101.647 216.255 102.478 215.331 103.133C214.406 103.789 213.362 104.255 212.256 104.506C159.526 116.553 114.295 111.366 77.8068 89.0675C73.7404 86.5715 72.4511 81.2653 74.9471 77.199ZM58.0039 114.891C61.1281 109.813 67.7731 108.209 72.8478 111.333C110.057 134.204 166.776 140.828 210.787 127.468C216.495 125.744 222.523 128.961 224.256 134.659C225.082 137.398 224.789 140.353 223.439 142.877C222.09 145.4 219.796 147.285 217.058 148.119C166.786 163.373 104.288 155.984 61.5579 129.726C56.4832 126.602 54.8798 119.959 58.0039 114.891ZM56.5493 154.139C101.164 180.638 174.771 183.075 217.367 170.147C224.208 168.072 231.441 171.934 233.514 178.774C234.511 182.06 234.161 185.608 232.543 188.636C230.925 191.665 228.17 193.927 224.884 194.925C175.986 209.769 94.7004 206.901 43.3353 176.408C41.8713 175.542 40.5926 174.396 39.5724 173.035C38.5522 171.674 37.8105 170.125 37.3897 168.477C36.969 166.829 36.8775 165.114 37.1206 163.431C37.3636 161.748 37.9364 160.129 38.806 158.667C42.4426 152.514 50.4101 150.486 56.5427 154.139H56.5493Z" fill="#1ED760"/>
</svg>
