<svg width="54" height="54" viewBox="0 0 54 54" fill="none" xmlns="http://www.w3.org/2000/svg">
<path d="M9.59375 0C9.59375 0 18.7072 7.42939 26.7959 14.7949C34.9082 7.42652 43.9922 0.0527344 43.9922 0.0527344C44.0272 0.0756884 47.5014 2.35748 49.375 4.22754C51.2717 6.12075 53.5859 9.64648 53.5859 9.64648C53.5859 9.64648 46.1748 18.7363 38.8184 26.8174C46.159 34.8819 53.5723 43.9785 53.5723 43.9785C53.5723 43.9785 51.2867 47.4729 49.4131 49.3525C47.5258 51.2458 44.0145 53.5487 43.9785 53.5723C43.9785 53.5723 34.8386 46.1623 26.79 38.8506C18.7201 46.1977 9.60742 53.625 9.60742 53.625C9.59833 53.619 6.07566 51.2891 4.1875 49.3975C2.31332 47.5198 0.0136719 44.0303 0.0136719 44.0303C0.0537603 43.9808 7.46183 34.8457 14.7627 26.8115C7.40988 18.7182 0.0442242 9.64922 0 9.59473C0 9.59473 2.31985 6.11382 4.19922 4.23145C6.08947 2.33818 9.58829 0.00364131 9.59375 0Z" fill="white"/>
</svg>
