<svg width="49" height="64" viewBox="0 0 49 64" fill="none" xmlns="http://www.w3.org/2000/svg">
<path d="M1.97672 0.854089C1.97672 0.854089 6.07812 0.0333676 8.73808 0.0312541C11.4155 0.0291267 15.5445 0.854089 15.5445 0.854089C15.5445 0.854089 17.4813 19.8216 17.4782 32.0149C17.475 44.1586 15.5445 63.0484 15.5445 63.0484C15.5445 63.0484 11.4572 63.9038 8.80333 63.908C6.11632 63.9122 1.97672 63.0484 1.97672 63.0484C1.97672 63.0484 0.0138991 44.3096 7.42631e-05 32.2484C-0.0139986 19.9708 1.97672 0.854089 1.97672 0.854089Z" fill="white"/>
<path d="M32.6173 0.854391C32.6173 0.854391 36.7158 0.00241829 39.3764 0C42.0562 -0.0024358 46.1852 0.854391 46.1852 0.854391C46.1852 0.854391 48.1219 19.8219 48.1188 32.0152C48.1157 44.1589 46.1852 63.0487 46.1852 63.0487C46.1852 63.0487 42.0393 63.8947 39.3632 63.8922C36.7102 63.8897 32.6173 63.0487 32.6173 63.0487C32.6173 63.0487 30.6545 44.3099 30.6407 32.2487C30.6266 19.9711 32.6173 0.854391 32.6173 0.854391Z" fill="white"/>
</svg>
