<svg width="60" height="65" viewBox="0 0 60 65" fill="none" xmlns="http://www.w3.org/2000/svg">
<path d="M59.3965 32.0429C59.3965 32.0429 44.4674 45.7599 33.2948 52.1353C22.5308 58.2774 3.89648 64.0859 3.89648 64.0859C3.89648 64.0859 -0.000392914 44.6487 -0.000392914 32.0429C-0.000392914 19.4372 3.89648 0 3.89648 0C3.89648 0 22.4251 6.69004 33.2948 12.9554C44.2355 19.2617 59.3965 32.0429 59.3965 32.0429Z" fill="white"/>
<path d="M47.044 1.03182C47.044 1.03182 50.3124 0.211102 52.4321 0.208988C54.5658 0.206861 57.8562 1.03182 57.8562 1.03182C57.8562 1.03182 59.3996 19.9994 59.3971 32.1927C59.3946 44.3363 57.8562 63.2262 57.8562 63.2262C57.8562 63.2262 54.599 64.0815 52.4841 64.0857C50.3429 64.0899 47.044 63.2262 47.044 63.2262C47.044 63.2262 45.4798 44.4874 45.4688 32.4262C45.4576 20.1486 47.044 1.03182 47.044 1.03182Z" fill="white"/>
</svg>
